<svg id="Capa_1" data-name="Capa 1" xmlns="http://www.w3.org/2000/svg" viewBox="0 0 649.34 807.81"><defs><style>.cls-1,.cls-2,.cls-3,.cls-4,.cls-5{fill:none;}.cls-1,.cls-2,.cls-3,.cls-4,.cls-5,.cls-6{stroke:#fff;stroke-miterlimit:10;}.cls-1,.cls-2{stroke-width:27px;}.cls-2{stroke-linecap:round;}.cls-3{stroke-width:35px;}.cls-4{stroke-width:26px;}.cls-5{stroke-width:18px;}.cls-6{fill:#fff;}</style></defs><title>white_ninja</title><path class="cls-1" d="M93.36,410.4V731.3c0,23.43,10.92,44,27,54.94"/><path class="cls-1" d="M120.4,786a47.15,47.15,0,0,0,26.52,8.32h357c29.46,0,53.56-28.35,53.56-63V413.18"/><path class="cls-1" d="M415.1,301.64l130.32,77.42c27.89,11.37,35.65,42.1,46.54,66.74,8.82,20,17.48,40,24.77,60.63,14.45,40.75,23.54,84.16,16.89,127.42a115.87,115.87,0,0,1-8.82,31.37c-9.5,20.9-23.82,32.84-35.14,42.27-11.49,9.57-25.21,20.75-46.42,25.83a94.65,94.65,0,0,1-22.34,2.59H126.34A95.28,95.28,0,0,1,104,733.32c-26.09-6.23-42.36-22.11-51.37-31.12C10.62,660.23,7.11,601,20.37,546,27.28,517.37,38,489.76,50,462.94c12.88-28.71,29.9-74.08,42.64-76"/><line class="cls-1" x1="83.02" y1="400.54" x2="568.44" y2="400.42"/><path class="cls-1" d="M328,13.52c11.37.18,51.68,1.37,86.79,29.4,58.57,46.75,59.88,133.44,43.49,186-13.8,44.26-43.57,87.39-83.2,109-12.52,6.82-26.52,14.76-46.17,15.68C276,356.05,237.52,306.38,224,288.9c-7.23-9.34-29.53-38.85-36.26-81.34-7-44-4.77-93.09,19.93-132.12C233.13,35.21,281,12.78,328,13.52Z"/><line class="cls-2" x1="94.8" y1="383.88" x2="226.94" y2="306.54"/><line class="cls-3" x1="160.66" y1="296.36" x2="83.48" y2="155.47"/><line class="cls-4" x1="177.94" y1="326.14" x2="150.5" y2="281.06"/><line class="cls-5" x1="61" y1="169.84" x2="105.9" y2="143.62"/><line class="cls-5" x1="126.6" y1="314.37" x2="194.52" y2="275.56"/><line class="cls-3" x1="486.84" y1="302.24" x2="564.03" y2="161.35"/><line class="cls-4" x1="469.57" y1="332.02" x2="497.01" y2="286.94"/><line class="cls-5" x1="586.51" y1="175.72" x2="541.61" y2="149.5"/><line class="cls-5" x1="520.91" y1="320.25" x2="452.98" y2="281.44"/><path class="cls-4" d="M396.64,197.44c-16.88-1.58-35.66-12-51.69-17.52-15.33-5.23-32.16-3.44-47.35,1.35-14.64,4.61-27.34,15.33-43,16.34-24.73,1.59-36.1-29.69-33.28-50,3.48-25,31.3-26.57,52.63-27.27,27.12-.9,58.14-1.34,85.26,0,19.34,1,43.32-1.82,60.63,10,9.85,6.73,12.75,17.4,11.7,28.79C429.66,179.75,421.09,199.72,396.64,197.44Z"/><rect class="cls-6" x="257.8" y="144.52" width="36.22" height="17.95" rx="8.98" ry="8.98"/><rect class="cls-6" x="360.29" y="144.52" width="36.22" height="17.95" rx="8.98" ry="8.98"/><g id="g9068"><path id="path9070" class="cls-6" d="M373,617.32c-1,.67-2.25,1.44-3.38,2.1l-.35.19.35,0c22.08,6.06,44,5.83,48.16-8,5.44-17.79-29.71-36.88-46.3-46-3.55-2-5.1-.73-2.83,1.86,10.47,12.07,25.39,35.79,4.35,49.73"/></g><g id="g9118"><path id="path9120" class="cls-6" d="M369.3,619.61s-27.83,17.47-76.9,17.47c-19,0-35-2.91-41.81-9.57-7.14-7-11-18.83-11-29.7,0-9.31,3.86-17.14,11.92-17.14,20.7,0,85.18,32.8,117.79,38.94"/></g><g id="g9122"><path id="path9124" class="cls-6" d="M276.6,518.22c1-.67,2.25-1.44,3.38-2.1l.35-.2-.35,0c-22.08-6.06-44-5.83-48.16,7.94-5.44,17.8,29.71,36.89,46.3,46,3.55,2,5.09.73,2.83-1.86-10.46-12.07-25.39-35.79-4.35-49.73"/></g><g id="g9126"><path id="path9128" class="cls-6" d="M280.3,515.94s27.83-17.47,76.92-17.47c19,0,35,2.91,41.79,9.57,7.14,7,11,18.83,11,29.7,0,9.31-3.86,17.14-11.92,17.14-20.7,0-85.18-32.8-117.79-38.94"/></g></svg>